HIERARCHY
ROOT Spine
{
    OFFSET 0.0 0.0 -0.0
    CHANNELS 6 Xposition Yposition Zposition Zrotation Xrotation Yrotation
    JOINT ShoulderCenter
    {
        OFFSET 0.0 31.202802658081055 0.0
        CHANNELS 3 Zrotation Xrotation Yrotation
        JOINT LeftShoulder
        {
            OFFSET 17.027725219726562 0.0 0.0
            CHANNELS 3 Zrotation Xrotation Yrotation
            JOINT LeftElbow
            {
                OFFSET 30.42404556274414 0.0 0.0
                CHANNELS 3 Zrotation Xrotation Yrotation
                JOINT LeftHand
                {
                    OFFSET 28.11672019958496 0.0 0.0
                    CHANNELS 3 Zrotation Xrotation Yrotation
                    End Site
                    {
                        OFFSET 11.246688842773438 0.0 0.0
                    }
                }
            }
        }
        JOINT RightShoulder
        {
            OFFSET -17.027725219726562 0.0 0.0
            CHANNELS 3 Zrotation Xrotation Yrotation
            JOINT RightElbow
            {
                OFFSET -30.42404556274414 0.0 0.0
                CHANNELS 3 Zrotation Xrotation Yrotation
                JOINT RightHand
                {
                    OFFSET -28.11672019958496 0.0 0.0
                    CHANNELS 3 Zrotation Xrotation Yrotation
                    End Site
                    {
                        OFFSET -11.246688842773438 0.0 0.0
                    }
                }
            }
        }
        End Site
        {
            OFFSET 0.0 12.481120109558105 0.0
        }
    }
    JOINT LeftHip
    {
        OFFSET 15.172779147176099 -15.172779147176099 0.0
        CHANNELS 3 Zrotation Xrotation Yrotation
        JOINT LeftKnee
        {
            OFFSET 0.0 -34.997127532958984 0.0
            CHANNELS 3 Zrotation Xrotation Yrotation
            JOINT LeftFoot
            {
                OFFSET 0.0 -47.207916259765625 0.0
                CHANNELS 3 Zrotation Xrotation Yrotation
                End Site
                {
                    OFFSET 0.0 0.0 18.883167266845703
                }
            }
        }
    }
    JOINT RightHip
    {
        OFFSET -15.172779147176099 -15.172779147176099 0.0
        CHANNELS 3 Zrotation Xrotation Yrotation
        JOINT RightKnee
        {
            OFFSET 0.0 -34.997127532958984 0.0
            CHANNELS 3 Zrotation Xrotation Yrotation
            JOINT RightFoot
            {
                OFFSET 0.0 -47.207916259765625 0.0
                CHANNELS 3 Zrotation Xrotation Yrotation
                End Site
                {
                    OFFSET 0.0 0.0 18.883167266845703
                }
            }
        }
    }
}
MOTION
Frames: 7
Frame Time: 0.03333333333333333
53.89999771118164 -88.30000305175781 137.60000610351562 -90.37570270784171 12.74714210255163 -66.38231471654166 2.065637291712903e-06 -1.9624188765393494e-06 -23.56152691861979 109.61141607208687 -12.226081293427523 163.85496116229376 -1.6183595098556073e-06 3.053480586004482e-06 97.3277775107567 6.3611093629270335e-15 0.0 0.0 -118.26202772536664 -1.0712072518461828 -172.1176421772858 3.9164569842988785e-06 -7.245137458493386e-07 -102.0143718037775 3.180554681463516e-15 3.180554681463516e-15 -6.361109362927032e-15 8.040093636695433 3.506029250295526 -57.94421562792907 4.092273909261153 -7.8476718383477015 11.7115354820769 3.1805546814635176e-15 -6.361109362927035e-15 1.7655625192200634e-31 -43.52347615215699 -22.93145132566991 44.61194052097674 96.35058499076257 -10.52321442942689 8.228638374573098 0.0 0.0 7.951386703658792e-16
54.29999923706055 -88.30000305175781 137.8000030517578 -90.37569941240038 12.568300869748578 -65.84625975556094 5.618229104751847e-07 5.699261605830719e-07 -23.92285603390485 109.17559831611632 -12.153444607025108 164.09134451468796 -2.027936930341299e-06 6.247673210564981e-06 97.06386794322097 3.531125038440127e-31 6.3611093629270335e-15 -6.3611093629270335e-15 -118.46041917988606 -0.7856459243738688 -172.22652047072077 1.1828428012717486e-06 1.6963687597737399e-06 -101.97171357180522 -3.180554681463516e-15 -3.1805546814635168e-15 6.361109362927033e-15 7.756317957558016 3.5693126062037654 -58.26446401316736 4.159650743884831 -7.937280470852206 12.046938701646068 -3.1805546814635168e-15 -1.7655625192200634e-31 6.3611093629270335e-15 -46.53520422285667 -20.00534240327912 49.388499378158436 99.59752107841977 -18.048417771415302 15.109923991886134 5.517382872562698e-33 -7.951386703658791e-16 7.951386703658791e-16
54.599998474121094 -88.4000015258789 137.89999389648438 -90.375700807121 12.568327646016293 -65.34039338225527 2.9916848391291397e-06 -5.567211930175524e-07 -24.25398359635407 108.98514764928613 -12.287764665817502 164.19057581228586 -1.1485854910771375e-06 5.612000028684421e-06 96.98014506774167 -6.361109362927033e-15 3.531125038440127e-31 -6.361109362927033e-15 -118.45666766601833 -0.6516720994752616 -172.14321290083166 -3.0866794076309163e-06 -9.891446414692124e-07 -102.25042582805507 -9.54166404439055e-15 3.1805546814635168e-15 -3.1805546814635164e-15 7.5651856677771985 3.4162855089074284 -58.450841611005465 3.960042477185818 -7.865145408514115 11.884557868060988 6.361109362927033e-15 3.531125038440127e-31 6.361109362927033e-15 -48.718067458140055 -17.016307450920724 54.650452207452666 102.86277382946199 -25.107908406051532 22.918269402738318 0.0 0.0 -1.5902773407317584e-15
54.79999923706055 -88.5 138.0 -90.56170918295028 12.349675228859466 -64.19333674722515 -9.484807649753297e-07 -7.530824554438723e-07 -25.198658146115875 108.58586055824316 -12.52027619760881 164.23660708641935 4.226514265365778e-06 -3.7970921891500276e-07 96.38475175918994 0.0 0.0 0.0 -118.82207160035951 -0.6073476190418966 -172.30393883456452 5.348724529521682e-06 1.1645430580182906e-06 -102.14885285946407 0.0 0.0 -3.1805546814635164e-15 7.585888529956825 3.676748189123473 -60.01025366504399 3.951008818582132 -8.364141245364383 12.69822849528398 6.361109362927033e-15 -7.062250076880254e-31 -1.2722218725854065e-14 -50.094569688343945 -13.383807953768157 59.416562536875645 105.64069292931997 -30.837360292590944 29.839206917479704 -6.3611093629270335e-15 -7.951386703658792e-16 -4.4139062980501586e-32
55.099998474121094 -88.5999984741211 138.10000610351562 -90.9391949439595 12.387854336106063 -62.63108007441444 2.416350254193148e-06 -2.4956312633602965e-07 -26.706969300568993 108.15052859823682 -12.805307265570718 164.01898460640288 2.462152222219877e-06 5.333303228035492e-06 95.94914260143808 6.3611093629270335e-15 -3.531125038440127e-31 -6.3611093629270335e-15 -119.0337157691632 -0.9359473416166706 -171.9920060371959 -5.793184236096287e-07 -2.3671941958836965e-06 -102.26709865297799 -1.5902773407317584e-15 4.4139062980501586e-32 -3.1805546814635168e-15 7.657773184172918 3.712886460100341 -61.10164477451423 3.554483648496515 -8.40861886706768 12.803547549348242 -6.361109362927035e-15 0.0 0.0 -49.87641600503262 -9.744210360567992 62.76233889645632 106.83660472594188 -34.48088692922648 34.09994245390322 0.0 3.180554681463516e-15 0.0
55.19999694824219 -88.80000305175781 138.10000610351562 -91.31044967021593 12.347090565845836 -60.95318618503446 -2.80799743820209e-06 -2.9650653511863117e-06 -28.505359533447912 107.89523922735177 -13.145038265701055 163.57322712703746 3.1679983090984554e-06 3.23498830583082e-06 95.97163343976483 -6.361109362927033e-15 0.0 0.0 -119.21739890969047 -1.2962236188768494 -172.1718644672345 -5.219884632028431e-06 -7.43906024875402e-06 -102.16785306567331 6.3611093629270335e-15 0.0 0.0 7.672977442514464 3.7644002183848873 -62.0664339113583 3.2678582724459266 -8.509489236468857 12.9031331701169 3.1805546814635168e-15 0.0 0.0 -48.59638838911968 -6.742921669631988 64.8654151757686 106.63265854879863 -36.27271990549945 35.57284251406402 0.0 3.1805546814635176e-15 0.0
55.400001525878906 -88.9000015258789 138.1999969482422 -91.86565097339485 12.126726238537534 -59.2157528222662 -5.092689674455095e-06 6.039883655457337e-06 -30.16889806348414 107.29767143980703 -13.418919755006211 163.05257861535054 1.9454493887979754e-06 5.930509905082849e-07 95.91268602237913 -1.2722218725854067e-14 7.062250076880254e-31 -6.3611093629270335e-15 -119.70008845045547 -1.5975463892830857 -171.91196269982524 7.94487742777259e-06 -6.626863758288675e-07 -102.26086832785646 -1.5902773407317582e-15 -3.1805546814635164e-15 -4.4139062980501586e-32 7.723837413082238 4.202857872918971 -63.39493259478365 3.179247875966061 -8.8244368300391 13.709493661165077 -6.3611093629270335e-15 0.0 0.0 -46.38642862507386 -3.93586938345841 65.22570708361158 104.93923772185218 -35.82749033261724 33.1786824849001 0.0 0.0 -7.951386703658792e-16
